<?xml version="1.0" encoding="UTF-8"?>
<svg xmlns="http://www.w3.org/2000/svg" viewBox="0 0 960 640" role="img">
  <defs>
    <filter id="sh" x="-20%" y="-20%" width="140%" height="140%">
      <feDropShadow dx="0" dy="6" stdDeviation="8" flood-opacity="0.12"/>
    </filter>
  </defs>
  <rect width="960" height="640" fill="#f7fafc"/>
  <text x="480" y="42" text-anchor="middle" font-family="Montserrat,Segoe UI,sans-serif" font-size="24" font-weight="700" fill="#1e3a6e">Etapa 1 — Preparar o bloco e orientar as faces · FDI 26</text>
  <g>
    <rect x="36" y="62" width="347" height="44" rx="22" fill="#1e3a6e"/>
    <circle cx="58" cy="84" r="14" fill="#fbbf24"/>
    <text x="80" y="90" font-family="Montserrat,Segoe UI,sans-serif" font-size="15" font-weight="700" fill="#fff">ORIENTAR FACES: V / L / M / D</text>
  </g>
  <g transform="translate(260,120)" filter="url(#sh)">
    <polygon points="80,40 320,40 320,300 80,300" fill="#cfe8f8" stroke="#1e3a6e" stroke-width="3"/>
    <text x="200" y="160" text-anchor="middle" font-family="Montserrat,Segoe UI,sans-serif" font-size="56" font-weight="800" fill="#1e3a6e">V</text>
    <text x="200" y="195" text-anchor="middle" font-family="Montserrat,Segoe UI,sans-serif" font-size="16" font-weight="700" fill="#2d5596">VESTIBULAR</text>
    <polygon points="320,40 420,10 420,270 320,300" fill="#fde7c7" stroke="#1e3a6e" stroke-width="3"/>
    <text x="365" y="155" text-anchor="middle" font-family="Montserrat,Segoe UI,sans-serif" font-size="28" font-weight="800" fill="#9a3412">D</text>
    <rect x="-90" y="140" width="140" height="64" rx="12" fill="#d1fae5" stroke="#059669" stroke-width="2"/>
    <text x="-20" y="168" text-anchor="middle" font-family="Montserrat,Segoe UI,sans-serif" font-size="26" font-weight="800" fill="#059669">M</text>
    <text x="-20" y="190" text-anchor="middle" font-family="Montserrat,Segoe UI,sans-serif" font-size="13" font-weight="700" fill="#059669">MESIAL</text>
    <rect x="100" y="320" width="200" height="48" rx="12" fill="#fce7f3" stroke="#be185d" stroke-width="2"/>
    <text x="200" y="350" text-anchor="middle" font-family="Montserrat,Segoe UI,sans-serif" font-size="18" font-weight="800" fill="#be185d">L · LINGUAL</text>
    <text x="200" y="28" text-anchor="middle" font-family="Montserrat,Segoe UI,sans-serif" font-size="14" font-weight="700" fill="#1e3a6e">FDI 26</text>
  </g><g transform="translate(70,150)" filter="url(#sh)">
    <rect x="18" y="0" width="14" height="260" rx="4" fill="#94a3b8"/>
    <rect x="14" y="0" width="22" height="40" rx="6" fill="#64748b"/>
    <path d="M12 260 L38 260 L25 310 Z" fill="#cbd5e1" stroke="#475569"/>
    <text x="25" y="340" text-anchor="middle" font-family="Montserrat,Segoe UI,sans-serif" font-size="13" font-weight="700" fill="#1e3a6e">Lecron</text>
  </g>
  <g transform="translate(48,520)">
    <rect width="18" height="18" rx="3" fill="#059669"/>
    <text x="28" y="15" font-family="Montserrat,Segoe UI,sans-serif" font-size="14" fill="#334155">preservar / margem</text>
    <rect x="220" width="18" height="18" rx="3" fill="#dc2626"/>
    <text x="248" y="15" font-family="Montserrat,Segoe UI,sans-serif" font-size="14" fill="#334155">remover</text>
  </g>
  <text x="480" y="600" text-anchor="middle" font-family="Montserrat,Segoe UI,sans-serif" font-size="16" fill="#475569">FDI 26 · 1º molar sup. E · cera + Lecron</text>
</svg>